<?xml version="1.0" encoding="utf-8"?>
<!-- Generator: Adobe Illustrator 17.1.0, SVG Export Plug-In . SVG Version: 6.00 Build 0)  -->
<!DOCTYPE svg PUBLIC "-//W3C//DTD SVG 1.1//EN" "http://www.w3.org/Graphics/SVG/1.1/DTD/svg11.dtd">
<svg version="1.1" id="Layer_1" xmlns="http://www.w3.org/2000/svg" xmlns:xlink="http://www.w3.org/1999/xlink" x="0px" y="0px"
	 viewBox="0 0 495 203" enable-background="new 0 0 495 203" xml:space="preserve">
<g>
	<path fill="#414042" d="M31.3,171.9v-43.2h2.9L53,150l18.8-21.3h2.9v43.2H66l0-25.1l-13,14.4l-13-14.4v25.1H31.3z"/>
	<path fill="#414042" d="M78,171.9v-43.3h16.7c13.5,0,20.2,7.2,20.2,21.7c0,14.4-6.7,21.6-20.2,21.6H78z M94.6,163.3
		c7.7,0,11.5-4.4,11.5-13c0-8.6-3.9-13-11.5-13h-8v26H94.6z"/>
	<path fill="#414042" d="M116.6,171.9l17.3-43.2h8.6l17.3,43.2l-9.2,0l-2.6-6.6h-19.6l-2.6,6.6H116.6z M138.4,140.2l-6.6,16.4h13
		L138.4,140.2z"/>
	<path fill="#414042" d="M182.4,165.7c-4.1-4.1-6.2-9.3-6.2-15.5c0-6.1,2.1-11.2,6.2-15.3c4.1-4.1,9.3-6.2,15.4-6.2
		c6.2,0,11.5,1.9,15.9,5.8l-5.8,6.3c-2.9-2.3-6.3-3.5-10.1-3.5c-3.9,0-7,1.2-9.4,3.6c-2.4,2.4-3.6,5.5-3.6,9.2c0,4,1.2,7.2,3.6,9.6
		c2.4,2.4,5.5,3.5,9.4,3.5c3.9,0,7.2-1.1,10.1-3.4l5.8,6.3c-4.4,3.8-9.7,5.8-15.9,5.8C191.7,171.9,186.6,169.9,182.4,165.7z"/>
	<path fill="#414042" d="M217.9,171.9l17.3-43.2h8.6l17.3,43.2l-9.2,0l-2.6-6.6h-19.6l-2.6,6.6H217.9z M239.7,140.2l-6.6,16.4h13
		L239.7,140.2z"/>
	<path fill="#414042" d="M295.4,149.1c3.8,2.5,5.8,5.8,6,9.9c-0.4,8.1-4.7,12.5-13.1,12.9l-24.3,0v-43.2H287
		c7.3,0.4,11.1,4.7,11.5,12.7C298.4,145.3,297.4,147.9,295.4,149.1z M272.7,146.1h12.1c3.5-0.1,5.3-1.9,5.4-5.4
		c-0.1-2.1-1.9-3.2-5.3-3.3h-12.2V146.1z M272.7,165.2h14.1c4.1-0.1,6.1-2.1,6.2-6.3c-0.1-2.8-2.1-4.2-6.1-4.3h-14.2V165.2z"/>
	<path fill="#414042" d="M307.2,128.7h8.6v43.3h-8.6V128.7z"/>
	<path fill="#414042" d="M321.7,171.9v-43.2h2.9l27.1,27.1v-27.1h8.6v43.2h-3.2l-26.8-26.8v26.8H321.7z"/>
	<path fill="#414042" d="M366.3,171.9v-43.2l31.8,0v8.1H375v9.2h17.3v8H375v9.8h23.1v8.1H366.3z"/>
	<path fill="#414042" d="M439.3,128.7v8.1h-14.4v35.2h-8.6v-35.2h-14.4v-8.1H439.3z"/>
	<path fill="#414042" d="M466.3,130.1c2.2,1,4.3,2.4,6.2,4.3l-5.8,5.8c-1.9-2.3-4.6-3.5-8.1-3.5c-3.5,0-5.7,0.8-6.6,2.5
		c-1,1.6-1,3,0,4.2s3.2,2,6.6,2.6c3.7,0.4,7,1.6,9.9,3.6c3,2,4.5,5.2,4.5,9.7c0,3.5-1.6,6.4-4.8,8.9c-3.2,2.5-6.9,3.7-11.1,3.7
		c-4,0-7.4-0.6-10.1-1.7c-2.7-1.2-5-2.7-6.9-4.6l5.8-5.8c1.9,2.3,5.2,3.7,9.8,4c3.8,0,6.2-0.8,7.2-2.5c1-1.6,1-3.3,0-4.9
		s-3.3-2.6-7.2-3c-3.5-0.4-6.6-1.4-9.5-3.2c-2.9-1.7-4.3-4.7-4.3-8.9c0-3.8,1.6-6.9,4.9-9.2c3.3-2.3,6.6-3.5,10.1-3.5
		C460.9,128.7,464.1,129.2,466.3,130.1z"/>
</g>
<g>
	<path fill="#8DC63F" d="M109.6,194.8h-3.4c-0.1,0-0.2,0-0.4,0c-0.2,0-0.4,0-0.7,0h-0.8c-0.5,0-1,0-1.4-0.1s-0.8-0.1-1.1-0.2
		c-0.3-0.1-0.6-0.2-0.9-0.3c-0.3-0.1-0.5-0.3-0.8-0.5c-0.6-0.5-1.1-1.2-1.5-2s-0.5-1.7-0.5-2.7c0-1,0.1-1.8,0.4-2.6s0.6-1.4,1.1-1.9
		c0.5-0.5,1.1-0.9,1.8-1.2c0.7-0.3,1.5-0.4,2.4-0.4c1.7,0,3.1,0.5,4,1.5c1,1,1.4,2.4,1.4,4.3c0,0.5,0,1-0.1,1.4
		c-0.1,0.4-0.2,0.8-0.3,1.2s-0.3,0.7-0.6,1c-0.2,0.3-0.5,0.6-0.8,1h2.1V194.8z M103.7,184.4c-0.6,0-1.1,0.1-1.6,0.3
		s-0.9,0.5-1.2,0.9c-0.3,0.3-0.5,0.8-0.6,1.4c-0.1,0.6-0.2,1.2-0.2,2c0,0.7,0.1,1.3,0.2,1.8c0.1,0.5,0.3,1,0.6,1.4
		c0.3,0.4,0.7,0.7,1.2,0.9c0.5,0.2,1.1,0.3,1.8,0.3c0.6,0,1.2-0.1,1.6-0.3c0.4-0.2,0.8-0.6,1.1-1.1c0.5-0.8,0.7-1.7,0.7-2.9
		c0-1.6-0.3-2.7-0.9-3.5S105,184.4,103.7,184.4z"/>
	<path fill="#8DC63F" d="M113.3,190.1c0,0.7,0,1.2,0.1,1.6s0.2,0.7,0.4,0.9c0.5,0.6,1.3,0.9,2.5,0.9c0.7,0,1.2-0.1,1.7-0.3
		c0.5-0.2,0.8-0.5,1.1-0.9c0.1-0.1,0.1-0.2,0.2-0.4c0-0.1,0.1-0.3,0.1-0.5s0-0.4,0.1-0.7c0-0.3,0-0.6,0-0.9v-6.8h1.9v6.8
		c0,0.6,0,1,0,1.4s-0.1,0.7-0.2,1c-0.1,0.3-0.2,0.5-0.3,0.7c-0.1,0.2-0.3,0.4-0.5,0.6c-0.9,0.8-2.3,1.3-4.2,1.3
		c-1,0-1.8-0.1-2.4-0.4c-0.6-0.3-1.2-0.7-1.6-1.3c-0.1-0.2-0.3-0.4-0.3-0.6c-0.1-0.2-0.2-0.4-0.2-0.7c-0.1-0.3-0.1-0.5-0.1-0.8
		c0-0.3,0-0.7,0-1.1v-6.9h1.9V190.1z"/>
	<path fill="#8DC63F" d="M126.9,183.1h2.4l4.6,11.7h-2l-1.2-3h-5.5l-1.2,3h-2L126.9,183.1z M125.9,190.3h4.4l-2.1-5.7L125.9,190.3z"
		/>
	<path fill="#8DC63F" d="M137.3,183.2v6.8c0,0.7,0,1.3,0.1,1.7c0.1,0.4,0.2,0.7,0.4,0.9c0.5,0.5,1.3,0.8,2.5,0.8h2.5v1.5H140
		c-0.9,0-1.6-0.1-2.2-0.3c-0.6-0.2-1-0.5-1.4-0.9c-0.2-0.2-0.3-0.4-0.5-0.6s-0.2-0.5-0.3-0.7c-0.1-0.3-0.1-0.6-0.2-0.9
		c0-0.3-0.1-0.7-0.1-1.2v-7H137.3z"/>
	<path fill="#8DC63F" d="M144.3,183.1h1.9v11.7h-1.9V183.1z"/>
	<path fill="#8DC63F" d="M147.6,184.6v-1.5h10v1.5h-4v10.2h-1.9v-10.2H147.6z"/>
	<path fill="#8DC63F" d="M158.4,183.1h2.2l3.5,5.5l3.4-5.5h2.2l-4.7,7v4.7H163v-4.7L158.4,183.1z"/>
	<path fill="#8DC63F" d="M175.3,193.3h5c0.4,0,0.8,0,1-0.1c0.3,0,0.5-0.1,0.7-0.2c0.5-0.3,0.7-0.8,0.7-1.5c0-0.4-0.1-0.8-0.3-1.1
		c-0.2-0.3-0.4-0.5-0.8-0.6c-0.2,0-0.4-0.1-0.6-0.1s-0.6,0-1.1,0h-1c-0.7,0-1.3,0-1.8-0.1c-0.5-0.1-0.8-0.2-1.2-0.5
		c-0.4-0.3-0.7-0.6-0.9-1s-0.3-0.9-0.3-1.4c0-0.7,0.1-1.3,0.4-1.8s0.7-0.9,1.2-1.2c0.3-0.2,0.7-0.3,1.1-0.4c0.4-0.1,1-0.1,1.7-0.1
		h4.8v1.5h-4.8c-0.5,0-0.9,0-1.2,0.1c-0.3,0.1-0.5,0.1-0.7,0.3c-0.2,0.1-0.4,0.3-0.5,0.6s-0.2,0.5-0.2,0.9c0,0.6,0.2,1,0.6,1.3
		s1,0.4,2,0.4h0.7c0.5,0,1,0,1.3,0s0.7,0.1,1,0.1c0.3,0.1,0.5,0.1,0.7,0.2c0.2,0.1,0.4,0.2,0.5,0.3c0.4,0.3,0.6,0.7,0.8,1.2
		c0.2,0.5,0.3,1,0.3,1.6c0,0.7-0.1,1.3-0.4,1.8s-0.7,0.9-1.3,1.2c-0.2,0.1-0.3,0.1-0.5,0.2c-0.2,0.1-0.4,0.1-0.6,0.1
		c-0.2,0-0.5,0-0.8,0.1s-0.7,0-1.1,0h-4.8V193.3z"/>
	<path fill="#8DC63F" d="M195.2,184.6h-3.4c-0.4,0-0.8,0-1.1,0.1c-0.3,0-0.6,0.1-0.8,0.2c-0.2,0.1-0.4,0.3-0.6,0.4s-0.3,0.4-0.5,0.7
		c-0.1,0.2-0.2,0.3-0.2,0.5c-0.1,0.1-0.1,0.3-0.1,0.5c0,0.2-0.1,0.4-0.1,0.6c0,0.2,0,0.5-0.1,0.7h7v1.5h-7c0,0.9,0.2,1.6,0.6,2.3
		c0.3,0.5,0.7,0.9,1.1,1.1c0.4,0.2,1,0.3,1.8,0.3h3.5v1.5h-3.8c-0.5,0-1,0-1.4-0.1c-0.4-0.1-0.8-0.2-1.1-0.3
		c-0.3-0.1-0.6-0.3-0.9-0.5c-0.3-0.2-0.5-0.5-0.7-0.8c-0.4-0.5-0.7-1.1-0.9-1.7c-0.2-0.6-0.3-1.4-0.3-2.2c0-2.4,0.7-4.1,2-5.2
		c0.4-0.3,0.9-0.5,1.5-0.7c0.6-0.1,1.3-0.2,2.2-0.2h3.3V184.6z"/>
	<path fill="#8DC63F" d="M199.3,194.8h-1.9v-11.7h5.3c0.8,0,1.5,0.1,2,0.2c0.5,0.1,0.9,0.3,1.3,0.5c0.4,0.3,0.7,0.6,0.9,1.1
		c0.2,0.4,0.3,0.9,0.3,1.5c0,0.5-0.1,1-0.3,1.4c-0.2,0.4-0.4,0.8-0.8,1c-0.2,0.2-0.4,0.3-0.6,0.4c-0.2,0.1-0.5,0.2-0.8,0.3
		c0.4,0.2,0.7,0.4,1,0.6c0.3,0.2,0.5,0.4,0.6,0.7c0.2,0.3,0.3,0.6,0.4,1s0.1,0.8,0.2,1.4c0,0.3,0,0.6,0.1,0.8c0,0.2,0,0.3,0.1,0.4
		c0,0.1,0,0.2,0.1,0.3c0,0.1,0.1,0.2,0.1,0.2h-1.9c0-0.1-0.1-0.1-0.1-0.2c0,0,0-0.1-0.1-0.3c0-0.3,0-0.5-0.1-0.7
		c0-0.2,0-0.3-0.1-0.5c-0.1-0.6-0.2-1.1-0.3-1.5c-0.2-0.4-0.4-0.8-0.7-1c-0.3-0.3-0.7-0.4-1.2-0.5c-0.5-0.1-1.1-0.2-1.7-0.2h-1.8
		V194.8z M202.6,188.4c0.5,0,1,0,1.3-0.1c0.3-0.1,0.5-0.2,0.7-0.3c0.4-0.4,0.6-0.9,0.6-1.5c0-0.4-0.1-0.7-0.2-1
		c-0.1-0.3-0.3-0.5-0.6-0.7c-0.2-0.1-0.4-0.1-0.7-0.2c-0.3,0-0.7-0.1-1.2-0.1h-3.3v3.8H202.6z"/>
	<path fill="#8DC63F" d="M215.1,194.8h-2.2l-5-11.7h2.2l4,9.9l4-9.9h2L215.1,194.8z"/>
	<path fill="#8DC63F" d="M221.6,183.1h1.9v11.7h-1.9V183.1z"/>
	<path fill="#8DC63F" d="M234.9,194.8h-3.6c-0.5,0-1,0-1.5-0.1c-0.4,0-0.8-0.1-1.2-0.2c-0.3-0.1-0.7-0.2-0.9-0.4
		c-0.3-0.2-0.5-0.4-0.8-0.6c-0.5-0.5-0.8-1.1-1.1-1.9c-0.3-0.8-0.4-1.6-0.4-2.5c0-0.5,0-1.1,0.1-1.6c0.1-0.5,0.2-1,0.4-1.4
		c0.2-0.4,0.4-0.8,0.7-1.2c0.3-0.4,0.6-0.6,0.9-0.9c0.4-0.3,0.9-0.5,1.5-0.6c0.6-0.1,1.3-0.2,2.1-0.2h3.7v1.5h-3.6
		c-0.4,0-0.8,0-1.1,0c-0.3,0-0.6,0.1-0.8,0.2s-0.4,0.2-0.6,0.3c-0.2,0.1-0.3,0.3-0.5,0.4c-0.3,0.4-0.5,0.9-0.7,1.5
		c-0.2,0.6-0.2,1.3-0.2,2.1c0,0.7,0.1,1.4,0.3,2c0.2,0.6,0.4,1,0.8,1.4c0.2,0.2,0.3,0.3,0.5,0.4s0.4,0.2,0.6,0.3
		c0.2,0.1,0.5,0.1,0.8,0.1c0.3,0,0.6,0,1,0h3.5V194.8z"/>
	<path fill="#8DC63F" d="M245.2,184.6h-3.4c-0.4,0-0.8,0-1.1,0.1c-0.3,0-0.6,0.1-0.8,0.2c-0.2,0.1-0.4,0.3-0.6,0.4s-0.3,0.4-0.5,0.7
		c-0.1,0.2-0.2,0.3-0.2,0.5c-0.1,0.1-0.1,0.3-0.1,0.5c0,0.2-0.1,0.4-0.1,0.6c0,0.2,0,0.5-0.1,0.7h7v1.5h-7c0,0.9,0.2,1.6,0.6,2.3
		c0.3,0.5,0.7,0.9,1.1,1.1c0.4,0.2,1,0.3,1.8,0.3h3.5v1.5h-3.8c-0.5,0-1,0-1.4-0.1c-0.4-0.1-0.8-0.2-1.1-0.3
		c-0.3-0.1-0.6-0.3-0.9-0.5c-0.3-0.2-0.5-0.5-0.7-0.8c-0.4-0.5-0.7-1.1-0.9-1.7c-0.2-0.6-0.3-1.4-0.3-2.2c0-2.4,0.7-4.1,2-5.2
		c0.4-0.3,0.9-0.5,1.5-0.7c0.6-0.1,1.3-0.2,2.2-0.2h3.3V184.6z"/>
	<path fill="#8DC63F" d="M263.6,189.5h-1.9c0,0.6,0,1.1-0.1,1.6s-0.1,0.8-0.2,1.1c-0.1,0.3-0.2,0.6-0.3,0.8
		c-0.1,0.2-0.3,0.4-0.5,0.7c-1,0.9-2.4,1.4-4.3,1.4c-1.5,0-2.7-0.2-3.4-0.6c-1-0.6-1.6-1.5-1.6-2.6c0-0.7,0.1-1.2,0.4-1.7
		c0.3-0.4,0.8-0.8,1.5-1.2c-0.4-0.2-0.7-0.3-0.9-0.5c-0.2-0.2-0.4-0.4-0.5-0.6c-0.3-0.4-0.4-0.9-0.4-1.5c0-0.5,0.1-1,0.3-1.5
		c0.2-0.4,0.5-0.8,0.9-1c0.3-0.2,0.7-0.4,1.2-0.5c0.5-0.1,1-0.1,1.8-0.1h4.4v1.5h-4.2c-0.3,0-0.5,0-0.7,0c-0.2,0-0.4,0-0.5,0.1
		c-0.2,0-0.3,0.1-0.4,0.2s-0.2,0.2-0.3,0.3c-0.3,0.3-0.4,0.7-0.4,1.2c0,0.6,0.2,1,0.6,1.3c0.2,0.1,0.4,0.2,0.7,0.3
		c0.3,0,0.7,0.1,1.2,0.1h1.1v1.5h-0.7c-0.6,0-1,0-1.3,0.1c-0.3,0.1-0.6,0.2-0.9,0.3c-0.5,0.4-0.8,0.9-0.8,1.5c0,0.7,0.3,1.2,0.8,1.5
		c0.5,0.4,1.3,0.5,2.3,0.5c1.5,0,2.5-0.5,3-1.4c0.1-0.2,0.2-0.3,0.2-0.5c0.1-0.2,0.1-0.3,0.1-0.5s0.1-0.4,0.1-0.7c0-0.3,0-0.6,0-1
		h-1.9V188h5.5V189.5z"/>
	<path fill="#8DC63F" d="M278.4,194.8h-3.6c-0.5,0-1,0-1.5-0.1c-0.4,0-0.8-0.1-1.2-0.2c-0.3-0.1-0.7-0.2-0.9-0.4s-0.5-0.4-0.8-0.6
		c-0.5-0.5-0.8-1.1-1.1-1.9c-0.3-0.8-0.4-1.6-0.4-2.5c0-0.5,0-1.1,0.2-1.6c0.1-0.5,0.2-1,0.4-1.4c0.2-0.4,0.4-0.8,0.7-1.2
		c0.3-0.4,0.6-0.6,0.9-0.9c0.4-0.3,0.9-0.5,1.5-0.6c0.6-0.1,1.3-0.2,2.1-0.2h3.7v1.5h-3.6c-0.4,0-0.8,0-1.1,0
		c-0.3,0-0.6,0.1-0.8,0.2s-0.4,0.2-0.6,0.3s-0.3,0.3-0.5,0.4c-0.3,0.4-0.5,0.9-0.7,1.5c-0.2,0.6-0.2,1.3-0.2,2.1
		c0,0.7,0.1,1.4,0.3,2c0.2,0.6,0.4,1,0.8,1.4c0.2,0.2,0.3,0.3,0.5,0.4s0.4,0.2,0.6,0.3s0.5,0.1,0.8,0.1c0.3,0,0.6,0,1,0h3.5V194.8z"
		/>
	<path fill="#8DC63F" d="M282.2,194.8h-1.9v-11.7h5.3c0.8,0,1.5,0.1,2,0.2c0.5,0.1,0.9,0.3,1.3,0.5c0.4,0.3,0.7,0.6,0.9,1.1
		s0.3,0.9,0.3,1.5c0,0.5-0.1,1-0.3,1.4c-0.2,0.4-0.4,0.8-0.8,1c-0.2,0.2-0.4,0.3-0.6,0.4c-0.2,0.1-0.5,0.2-0.8,0.3
		c0.4,0.2,0.7,0.4,1,0.6c0.3,0.2,0.5,0.4,0.6,0.7c0.2,0.3,0.3,0.6,0.4,1c0.1,0.4,0.1,0.8,0.2,1.4c0,0.3,0,0.6,0.1,0.8s0,0.3,0.1,0.4
		c0,0.1,0,0.2,0.1,0.3c0,0.1,0.1,0.2,0.1,0.2h-1.9c0-0.1-0.1-0.1-0.1-0.2s0-0.1-0.1-0.3c0-0.3,0-0.5-0.1-0.7s0-0.3-0.1-0.5
		c-0.1-0.6-0.2-1.1-0.3-1.5c-0.2-0.4-0.4-0.8-0.7-1c-0.3-0.3-0.7-0.4-1.2-0.5c-0.5-0.1-1.1-0.2-1.7-0.2h-1.8V194.8z M285.5,188.4
		c0.5,0,1,0,1.3-0.1c0.3-0.1,0.5-0.2,0.7-0.3c0.4-0.4,0.6-0.9,0.6-1.5c0-0.4-0.1-0.7-0.2-1c-0.1-0.3-0.3-0.5-0.6-0.7
		c-0.2-0.1-0.4-0.1-0.7-0.2c-0.3,0-0.7-0.1-1.2-0.1h-3.3v3.8H285.5z"/>
	<path fill="#8DC63F" d="M295.9,183.1h2.4l4.6,11.7h-2l-1.2-3h-5.5l-1.2,3h-2L295.9,183.1z M294.9,190.3h4.4l-2.1-5.7L294.9,190.3z"
		/>
	<path fill="#8DC63F" d="M313.1,189.7h-6.8v5.1h-1.9v-7c0-0.3,0-0.6,0-0.9c0-0.2,0-0.5,0.1-0.7c0-0.2,0.1-0.4,0.1-0.5
		c0.1-0.2,0.1-0.3,0.2-0.5c0.4-0.9,1.2-1.5,2.2-1.8c0.6-0.2,1.5-0.3,2.7-0.3h3.4v1.5h-3.6c-0.6,0-1.1,0.1-1.5,0.2
		c-0.4,0.1-0.7,0.3-1,0.5s-0.4,0.5-0.6,0.9s-0.2,0.8-0.2,1.4v0.7h6.8V189.7z"/>
	<path fill="#8DC63F" d="M313.9,184.6v-1.5h10v1.5h-4v10.2H318v-10.2H313.9z"/>
	<path fill="#8DC63F" d="M325.1,193.3h5c0.4,0,0.8,0,1-0.1c0.3,0,0.5-0.1,0.7-0.2c0.5-0.3,0.7-0.8,0.7-1.5c0-0.4-0.1-0.8-0.3-1.1
		s-0.4-0.5-0.8-0.6c-0.2,0-0.4-0.1-0.6-0.1s-0.6,0-1.1,0h-1c-0.7,0-1.3,0-1.8-0.1c-0.5-0.1-0.8-0.2-1.2-0.5c-0.4-0.3-0.7-0.6-0.9-1
		c-0.2-0.4-0.3-0.9-0.3-1.4c0-0.7,0.1-1.3,0.5-1.8c0.3-0.5,0.7-0.9,1.2-1.2c0.3-0.2,0.7-0.3,1.1-0.4c0.4-0.1,1-0.1,1.7-0.1h4.8v1.5
		h-4.8c-0.5,0-0.9,0-1.2,0.1c-0.3,0.1-0.5,0.1-0.7,0.3c-0.2,0.1-0.4,0.3-0.5,0.6s-0.2,0.5-0.2,0.9c0,0.6,0.2,1,0.6,1.3
		c0.4,0.2,1,0.4,2,0.4h0.7c0.5,0,1,0,1.3,0c0.4,0,0.7,0.1,1,0.1c0.3,0.1,0.5,0.1,0.7,0.2c0.2,0.1,0.4,0.2,0.5,0.3
		c0.4,0.3,0.6,0.7,0.8,1.2c0.2,0.5,0.3,1,0.3,1.6c0,0.7-0.1,1.3-0.4,1.8c-0.3,0.5-0.7,0.9-1.3,1.2c-0.2,0.1-0.3,0.1-0.5,0.2
		s-0.4,0.1-0.6,0.1c-0.2,0-0.5,0-0.8,0.1c-0.3,0-0.6,0-1.1,0h-4.8V193.3z"/>
	<path fill="#8DC63F" d="M343.2,192.7l3.5-9.5h2.7v11.7h-1.8v-9.9l-3.6,9.9h-1.9l-3.8-9.9v9.9h-1.8v-11.7h2.7L343.2,192.7z"/>
	<path fill="#8DC63F" d="M355.8,183.1h2.4l4.6,11.7h-2l-1.2-3h-5.5l-1.2,3h-2L355.8,183.1z M354.7,190.3h4.4l-2.1-5.7L354.7,190.3z"
		/>
	<path fill="#8DC63F" d="M366.1,194.8h-1.8v-11.7h2.2l6,9.3v-9.3h1.8v11.7h-2.2l-6-9.3V194.8z"/>
	<path fill="#8DC63F" d="M376.8,193.3h5c0.4,0,0.8,0,1-0.1c0.3,0,0.5-0.1,0.7-0.2c0.5-0.3,0.7-0.8,0.7-1.5c0-0.4-0.1-0.8-0.3-1.1
		s-0.4-0.5-0.8-0.6c-0.2,0-0.4-0.1-0.6-0.1s-0.6,0-1.1,0h-1c-0.7,0-1.3,0-1.8-0.1c-0.5-0.1-0.8-0.2-1.2-0.5c-0.4-0.3-0.7-0.6-0.9-1
		c-0.2-0.4-0.3-0.9-0.3-1.4c0-0.7,0.1-1.3,0.5-1.8c0.3-0.5,0.7-0.9,1.2-1.2c0.3-0.2,0.7-0.3,1.1-0.4c0.4-0.1,1-0.1,1.7-0.1h4.8v1.5
		h-4.8c-0.5,0-0.9,0-1.2,0.1c-0.3,0.1-0.5,0.1-0.7,0.3c-0.2,0.1-0.4,0.3-0.5,0.6s-0.2,0.5-0.2,0.9c0,0.6,0.2,1,0.6,1.3
		c0.4,0.2,1,0.4,2,0.4h0.7c0.5,0,1,0,1.3,0c0.4,0,0.7,0.1,1,0.1c0.3,0.1,0.5,0.1,0.7,0.2c0.2,0.1,0.4,0.2,0.5,0.3
		c0.4,0.3,0.6,0.7,0.8,1.2c0.2,0.5,0.3,1,0.3,1.6c0,0.7-0.1,1.3-0.4,1.8c-0.3,0.5-0.7,0.9-1.3,1.2c-0.2,0.1-0.3,0.1-0.5,0.2
		s-0.4,0.1-0.6,0.1c-0.2,0-0.5,0-0.8,0.1c-0.3,0-0.6,0-1.1,0h-4.8V193.3z"/>
	<path fill="#8DC63F" d="M398.2,194.8h-1.9v-5.2h-6.1v5.2h-1.9v-11.6h1.9v5h6.1v-5h1.9V194.8z"/>
	<path fill="#8DC63F" d="M400.9,183.1h1.9v11.7h-1.9V183.1z"/>
	<path fill="#8DC63F" d="M407.3,194.8h-1.9v-11.7h5.2c0.4,0,0.8,0,1.1,0.1c0.3,0,0.6,0.1,0.8,0.2c0.2,0.1,0.5,0.2,0.7,0.3
		s0.4,0.3,0.6,0.4c0.7,0.7,1,1.6,1,2.7c0,0.7-0.1,1.3-0.3,1.8c-0.2,0.5-0.5,1-1,1.3c-0.3,0.2-0.7,0.4-1.2,0.5
		c-0.5,0.1-1.2,0.2-2,0.2h-2.9V194.8z M410.3,189.1c0.5,0,0.9,0,1.1-0.1c0.3-0.1,0.5-0.2,0.7-0.4c0.2-0.2,0.3-0.4,0.4-0.7
		s0.1-0.7,0.1-1s-0.1-0.7-0.2-1s-0.3-0.5-0.5-0.7c-0.2-0.2-0.4-0.3-0.7-0.3c-0.3-0.1-0.7-0.1-1.2-0.1h-3v4.5H410.3z"/>
</g>
<polygon fill="#8DC63F" points="171.8,71.3 250.5,49.2 323.8,71.3 343.2,40.2 250.5,12.7 152.4,40.2 "/>
<polygon fill="#70AD43" points="250.5,49.2 323.8,71.3 343.2,40.2 250.5,12.7 "/>
<polygon fill="#8DC63F" points="301.3,99.5 491.1,115.1 254.1,115.1 "/>
<polygon fill="#52883D" points="343.2,40.2 249.6,67.4 152.4,40.2 170.1,85.6 249.6,110 329.3,84.7 "/>
<polygon fill="#A6CF51" points="249.6,67.4 152.4,40.2 170.1,85.6 249.6,110 "/>
<polygon fill="#8DC63F" points="195.1,99.3 6.6,115.1 243.7,115.1 "/>
</svg>
