<?xml version="1.0" standalone="no"?>
<!DOCTYPE svg PUBLIC "-//W3C//DTD SVG 20010904//EN"
 "http://www.w3.org/TR/2001/REC-SVG-20010904/DTD/svg10.dtd">
<svg version="1.0" xmlns="http://www.w3.org/2000/svg"
 width="178.000000pt" height="178.000000pt" viewBox="0 0 178.000000 178.000000"
 preserveAspectRatio="xMidYMid meet">
<metadata>
Created by potrace 1.11, written by Peter Selinger 2001-2013
</metadata>
<g transform="translate(0.000000,178.000000) scale(0.100000,-0.100000)"
fill="#000000" stroke="none">
<path d="M820 1748 c-80 -36 -195 -76 -246 -84 -22 -3 -43 -8 -47 -11 -16 -10
-203 -12 -252 -2 -64 12 -157 40 -169 51 -34 30 -36 16 -32 -434 3 -471 2
-467 55 -609 84 -222 296 -427 601 -579 175 -88 148 -86 285 -19 154 75 190
96 283 164 173 124 301 280 360 438 51 135 53 164 54 615 0 233 -2 426 -5 429
-4 3 -21 -1 -39 -10 -34 -15 -88 -33 -129 -43 -13 -4 -67 -8 -119 -9 -83 -3
-116 0 -216 21 -53 10 -162 48 -231 80 -42 19 -78 34 -82 33 -3 0 -35 -14 -71
-31z"/>
</g>
</svg>
